HIERARCHY
ROOT joint_Root
{
	OFFSET 0.0 0.0 0.0
	CHANNELS 6 Xposition Yposition Zposition Zrotation Xrotation Yrotation 
	JOINT Hips
	{
		OFFSET -17.1583 93.1646 452.98
		CHANNELS 6 Xposition Yposition Zposition Zrotation Xrotation Yrotation 
		JOINT Spine
		{
			OFFSET 15.7357 0.0 0.0
			CHANNELS 6 Xposition Yposition Zposition Zrotation Xrotation Yrotation 
			JOINT Chest
			{
				OFFSET 8.98455 -0.406207 0.0
				CHANNELS 6 Xposition Yposition Zposition Zrotation Xrotation Yrotation 
				JOINT Neck
				{
					OFFSET 16.3773 0.0 0.0
					CHANNELS 6 Xposition Yposition Zposition Zrotation Xrotation Yrotation 
					JOINT Head
					{
						OFFSET 6.45672 0.0 0.0
						CHANNELS 6 Xposition Yposition Zposition Zrotation Xrotation Yrotation 
						End Site
						{
							OFFSET 0.0 0.0 0.0
						}
					}
				}
				JOINT Shoulder_L
				{
					OFFSET 12.9942 -0.242716 4.98039
					CHANNELS 6 Xposition Yposition Zposition Zrotation Xrotation Yrotation 
					JOINT UpperArm_L
					{
						OFFSET 5.34809 0.0 0.0
						CHANNELS 6 Xposition Yposition Zposition Zrotation Xrotation Yrotation 
						JOINT LowerArm_L
						{
							OFFSET 24.3286 1.87007e-05 0.0
							CHANNELS 6 Xposition Yposition Zposition Zrotation Xrotation Yrotation 
							JOINT Hand_L
							{
								OFFSET 22.2916 0.0 0.0
								CHANNELS 6 Xposition Yposition Zposition Zrotation Xrotation Yrotation 
								End Site
								{
									OFFSET 0.0 0.0 0.0
								}
							}
						}
					}
				}
				JOINT Shoulder_R
				{
					OFFSET 12.9945 -0.242716 -4.98039
					CHANNELS 6 Xposition Yposition Zposition Zrotation Xrotation Yrotation 
					JOINT UpperArm_R
					{
						OFFSET -5.34813 0.0 0.0
						CHANNELS 6 Xposition Yposition Zposition Zrotation Xrotation Yrotation 
						JOINT LowerArm_R
						{
							OFFSET -24.3289 0.000322201 0.0
							CHANNELS 6 Xposition Yposition Zposition Zrotation Xrotation Yrotation 
							JOINT Hand_R
							{
								OFFSET -22.2915 -0.000108084 0.0
								CHANNELS 6 Xposition Yposition Zposition Zrotation Xrotation Yrotation 
								End Site
								{
									OFFSET 0.0 0.0 0.0
								}
							}
						}
					}
				}
			}
		}
		JOINT UpperLeg_L
		{
			OFFSET -2.19248 -6.46944 0.0
			CHANNELS 6 Xposition Yposition Zposition Zrotation Xrotation Yrotation 
			JOINT LowerLeg_L
			{
				OFFSET 39.0811 0.0 -1.23785e-05
				CHANNELS 6 Xposition Yposition Zposition Zrotation Xrotation Yrotation 
				JOINT Foot_L
				{
					OFFSET 40.9854 0.0 -1.26872e-05
					CHANNELS 6 Xposition Yposition Zposition Zrotation Xrotation Yrotation 
					JOINT Toes_L
					{
						OFFSET 11.7543 0.0 0.0
						CHANNELS 6 Xposition Yposition Zposition Zrotation Xrotation Yrotation 
						End Site
						{
							OFFSET 0.0 0.0 0.0
						}
					}
				}
			}
		}
		JOINT UpperLeg_R
		{
			OFFSET -2.19251 6.46944 0.0
			CHANNELS 6 Xposition Yposition Zposition Zrotation Xrotation Yrotation 
			JOINT LowerLeg_R
			{
				OFFSET -39.0811 -0.00228153 -0.0401928
				CHANNELS 6 Xposition Yposition Zposition Zrotation Xrotation Yrotation 
				JOINT Foot_R
				{
					OFFSET -40.9854 0.0 0.0
					CHANNELS 6 Xposition Yposition Zposition Zrotation Xrotation Yrotation 
					JOINT Toes_R
					{
						OFFSET -11.7543 0.0 0.0
						CHANNELS 6 Xposition Yposition Zposition Zrotation Xrotation Yrotation 
						End Site
						{
							OFFSET 0.0 0.0 0.0
						}
					}
				}
			}
		}
	}
}
MOTION
Frames:	4
Frame Time:	0.0333333
0.000000 0.000000 0.000000 0.000000 0.000000 -0.000000 186.243000 90.734600 231.054000 97.028500 -55.677900 0.010288 15.735700 0.000005 -0.000001 154.070000 87.008700 -154.996000 8.984550 -0.406207 -0.000000 -5.117520 5.478620 -1.611100 16.377300 -0.000001 -0.000001 1.095030 -7.536560 1.582690 6.456720 -0.000001 -0.000000 9.317990 -13.148900 3.169360 12.994200 -0.242716 4.980390 -92.737700 6.828030 -68.089700 5.348090 -0.000007 -0.000001 -43.563200 -22.384800 28.764900 24.328600 0.000019 0.000005 0.420169 12.726600 -1.906050 22.291600 -0.000001 0.000005 25.177100 3.868340 26.074800 12.994500 -0.242716 -4.980390 89.407300 2.179230 -74.781100 -5.348130 -0.000001 -0.000004 -65.204100 6.097130 -17.077100 -24.328900 0.000322 -0.000009 -13.960700 -9.641770 -56.031100 -22.291500 -0.000108 -0.000004 10.782400 5.565630 -9.449080 -2.192480 -6.469440 -0.000000 -174.578000 -2.587420 -24.003900 39.081100 -0.000007 -0.000012 -0.002717 0.012066 12.686200 40.985400 -0.000006 -0.000013 -12.351500 7.063950 -67.232600 11.754300 -0.000000 0.000003 0.000885 0.016539 -15.906000 -2.192510 6.469440 -0.000001 177.897000 -7.238510 -174.103000 -39.081100 -0.002282 -0.040193 -0.001359 0.009009 27.380200 -40.985400 0.000008 0.000006 6.279170 9.819650 -58.346300 -11.754300 -0.000006 -0.000006 -0.113773 -0.477516 -36.575500
0.000000 0.000000 0.000000 0.000000 0.000000 -0.000000 183.332000 89.532700 235.457000 99.739000 -55.706900 1.890980 15.735700 0.000005 -0.000001 154.279000 87.485200 -155.701000 8.984550 -0.406207 -0.000000 -5.533420 4.690500 -2.622170 16.377300 -0.000001 -0.000001 0.690561 -7.808050 2.022340 6.456720 -0.000001 -0.000000 8.820160 -13.237100 3.938270 12.994200 -0.242716 4.980390 -92.791200 7.303930 -69.018600 5.348090 -0.000007 -0.000001 -43.679000 -22.969900 27.398000 24.328600 0.000019 0.000005 0.334095 9.350630 -2.056730 22.291600 -0.000001 0.000005 27.509300 4.068660 23.237100 12.994500 -0.242716 -4.980390 89.030100 3.509680 -74.540900 -5.348130 -0.000001 -0.000004 -66.806100 3.460950 -12.741500 -24.328900 0.000322 -0.000009 -15.116500 -11.588400 -53.362100 -22.291500 -0.000108 -0.000004 12.916600 5.581380 -10.283100 -2.192480 -6.469440 -0.000000 -177.989000 -2.648980 -30.306100 39.081100 -0.000007 -0.000012 0.044007 -0.088666 26.396200 40.985400 -0.000006 -0.000013 -7.019120 8.493740 -60.849600 11.754300 -0.000000 0.000003 0.001967 0.045478 -14.732000 -2.192510 6.469440 -0.000001 175.326000 -5.530540 -176.239000 -39.081100 -0.002282 -0.040193 -0.000349 0.005334 34.317900 -40.985400 0.000008 0.000006 7.087510 9.721820 -53.062900 -11.754300 -0.000006 -0.000006 -0.209433 -0.660547 -44.956000
0.000000 0.000000 0.000000 0.000000 0.000000 -0.000000 180.187000 88.460500 239.628000 103.096000 -55.540400 6.314730 15.735700 0.000005 -0.000001 132.627000 87.631500 -134.742000 8.984550 -0.406207 -0.000000 -4.217790 3.426510 -4.106040 16.377300 -0.000001 -0.000001 -0.141532 -8.254040 2.121070 6.456720 -0.000001 -0.000000 7.883230 -13.111800 5.748850 12.994200 -0.242716 4.980390 -93.209800 8.629670 -69.506300 5.348090 -0.000007 -0.000001 -45.277100 -21.964100 23.260900 24.328600 0.000019 0.000005 0.351555 7.725050 -2.614600 22.291600 -0.000001 0.000005 24.930200 4.288050 19.958000 12.994500 -0.242716 -4.980390 88.384100 5.802160 -74.408900 -5.348130 -0.000001 -0.000004 -68.082200 0.136513 -8.608560 -24.328900 0.000322 -0.000009 -12.254000 -11.751400 -46.827000 -22.291500 -0.000108 -0.000004 12.423400 5.570110 -9.687470 -2.192480 -6.469440 -0.000000 179.440000 -1.286600 -30.137000 39.081100 -0.000007 -0.000012 0.226973 -0.328621 34.632300 40.985400 -0.000006 -0.000013 -5.221430 7.274130 -63.724400 11.754300 -0.000000 0.000003 0.001463 0.137599 -10.996700 -2.192510 6.469440 -0.000001 172.734000 -4.127000 -178.666000 -39.081100 -0.002282 -0.040193 0.020875 -0.018437 43.681200 -40.985400 0.000008 0.000006 6.549230 9.401210 -43.788900 -11.754300 -0.000006 -0.000006 -0.184498 -0.618713 -42.981300
0.000000 0.000000 0.000000 0.000000 0.000000 -0.000000 177.069000 87.792800 243.113000 105.268000 -56.911600 10.732800 15.735700 0.000005 -0.000001 113.379000 86.707400 -115.925000 8.984550 -0.406207 -0.000000 -1.654250 2.821680 -5.051650 16.377300 -0.000001 -0.000001 -1.698430 -8.428880 1.858470 6.456720 -0.000001 -0.000000 6.392170 -13.029400 7.592230 12.994200 -0.242716 4.980390 -93.303800 9.116120 -69.981100 5.348090 -0.000007 -0.000001 -50.005600 -19.909300 16.124700 24.328600 0.000019 0.000005 0.489012 7.240730 -3.874280 22.291600 -0.000001 0.000005 19.419900 4.423800 17.821400 12.994500 -0.242716 -4.980390 87.969200 7.066750 -73.922100 -5.348130 -0.000001 -0.000004 -69.586400 -0.704673 -6.373740 -24.328900 0.000322 -0.000009 -8.164110 -11.711700 -35.232800 -22.291500 -0.000108 -0.000004 11.233700 5.514420 -7.120310 -2.192480 -6.469440 -0.000000 177.745000 -3.514380 -26.822500 39.081100 -0.000007 -0.000012 0.392016 -0.469800 39.843300 40.985400 -0.000006 -0.000013 -3.559310 8.326450 -69.166000 11.754300 -0.000000 0.000003 0.000143 0.165184 -9.877180 -2.192510 6.469440 -0.000001 171.287000 -4.167040 176.850000 -39.081100 -0.002282 -0.040193 0.111020 -0.076874 54.504400 -40.985400 0.000008 0.000006 3.694920 6.466240 -31.972900 -11.754300 -0.000006 -0.000006 -0.011779 -0.116482 -21.321300
